{
	"asset":{
		"generator":"Khronos glTF Blender I/O v4.4.56",
		"version":"2.0"
	},
	"scene":0,
	"scenes":[
		{
			"name":"Scene",
			"nodes":[
				17
			]
		}
	],
	"nodes":[
		{
			"mesh":0,
			"name":"Object_7",
			"translation":[
				-0.3803844451904297,
				1.1329039335250854,
				2.5024192333221436
			]
		},
		{
			"children":[
				0
			],
			"name":"Cube.001_4",
			"rotation":[
				0,
				0.03525438532233238,
				0,
				0.9993783831596375
			],
			"scale":[
				0.19698333740234375,
				0.19698336720466614,
				0.08536472916603088
			],
			"translation":[
				0.05969054624438286,
				-0.2231631875038147,
				-0.21836724877357483
			]
		},
		{
			"mesh":1,
			"name":"Object_13",
			"translation":[
				-9.02567195892334,
				-11.780137062072754,
				0.20848913490772247
			]
		},
		{
			"children":[
				2
			],
			"name":"Cube.002_7",
			"scale":[
				0.03782118111848831,
				0.03782118484377861,
				0.03782118484377861
			],
			"translation":[
				0.3413616716861725,
				0.4455387592315674,
				-0.00788530707359314
			]
		},
		{
			"mesh":2,
			"name":"Object_15",
			"translation":[
				-11.561545372009277,
				-16.857280731201172,
				0.2674395740032196
			]
		},
		{
			"children":[
				4
			],
			"name":"Cube.003_8",
			"scale":[
				0.029484447091817856,
				0.029484445229172707,
				0.029484445229172707
			],
			"translation":[
				0.34088578820228577,
				0.49702751636505127,
				-0.00788530707359314
			]
		},
		{
			"mesh":3,
			"name":"Object_17",
			"translation":[
				-1.293073058128357,
				-3.498901844024658,
				-3.4870259761810303
			]
		},
		{
			"children":[
				6
			],
			"name":"Cube.004_9",
			"scale":[
				-0.02787378616631031,
				-0.16201207041740417,
				-0.027873791754245758
			],
			"translation":[
				-0.03604283928871155,
				-0.5668644309043884,
				-0.09719663858413696
			]
		},
		{
			"mesh":4,
			"name":"Object_4",
			"translation":[
				-0.9890586733818054,
				-0.8916817307472229,
				0.03133217245340347
			]
		},
		{
			"mesh":5,
			"name":"Object_5",
			"translation":[
				-0.9890586733818054,
				-0.8916817307472229,
				0.03133217245340347
			]
		},
		{
			"children":[
				8,
				9
			],
			"name":"Cube_3",
			"scale":[
				0.2516690194606781,
				0.2516690194606781,
				0.2516690194606781
			],
			"translation":[
				0.248915433883667,
				0.22440864145755768,
				-0.007885336875915527
			]
		},
		{
			"mesh":6,
			"name":"Object_11",
			"translation":[
				-1.1642035245895386,
				-5.443066120147705,
				7.001658916473389
			]
		},
		{
			"children":[
				11
			],
			"name":"Sphere.001_6",
			"rotation":[
				0.0034547075629234314,
				-0.11357951164245605,
				0.0036282320506870747,
				0.9935163855552673
			],
			"scale":[
				0.08907300233840942,
				0.08907300233840942,
				0.03901968523859978
			],
			"translation":[
				0.15879622101783752,
				0.48757272958755493,
				-0.23981261253356934
			]
		},
		{
			"mesh":7,
			"name":"Object_9",
			"translation":[
				-1.065130591392517,
				-4.869865894317627,
				5.862030029296875
			]
		},
		{
			"children":[
				13
			],
			"name":"Sphere_5",
			"rotation":[
				0.0034547075629234314,
				-0.11357949674129486,
				0.0036282322835177183,
				0.9935163855552673
			],
			"scale":[
				0.09955704212188721,
				0.09955710917711258,
				0.04361238703131676
			],
			"translation":[
				0.157118558883667,
				0.4874523878097534,
				-0.22219160199165344
			]
		},
		{
			"children":[
				1,
				3,
				5,
				7,
				10,
				12,
				14
			],
			"name":"GLTF_SceneRootNode",
			"rotation":[
				0.70710688829422,
				0,
				0,
				0.7071066498756409
			]
		},
		{
			"children":[
				15
			],
			"name":"root"
		},
		{
			"children":[
				16
			],
			"name":"Sketchfab_model",
			"rotation":[
				-0.70710688829422,
				0,
				0,
				0.7071066498756409
			]
		}
	],
	"materials":[
		{
			"doubleSided":true,
			"name":"Blue",
			"pbrMetallicRoughness":{
				"baseColorFactor":[
					0.09903830289840698,
					0.45577898621559143,
					0.800000011920929,
					1
				],
				"metallicFactor":0,
				"roughnessFactor":0.30000001192092896
			}
		},
		{
			"doubleSided":true,
			"name":"Yellow",
			"pbrMetallicRoughness":{
				"baseColorFactor":[
					0.800000011920929,
					0.6639209985733032,
					0.054388098418712616,
					1
				],
				"metallicFactor":0,
				"roughnessFactor":0.30000001192092896
			}
		},
		{
			"doubleSided":true,
			"name":"White",
			"pbrMetallicRoughness":{
				"baseColorFactor":[
					0.800000011920929,
					0.800000011920929,
					0.800000011920929,
					1
				],
				"metallicFactor":0,
				"roughnessFactor":0.5
			}
		},
		{
			"doubleSided":true,
			"name":"Pink",
			"pbrMetallicRoughness":{
				"baseColorFactor":[
					0.800000011920929,
					0.15828099846839905,
					0.518634021282196,
					1
				],
				"metallicFactor":0,
				"roughnessFactor":0.5
			}
		},
		{
			"doubleSided":true,
			"name":"Black",
			"pbrMetallicRoughness":{
				"baseColorFactor":[
					0.03310199826955795,
					0.03310199826955795,
					0.03310199826955795,
					1
				],
				"metallicFactor":0,
				"roughnessFactor":0.20000000298023224
			}
		}
	],
	"meshes":[
		{
			"name":"Object_2",
			"primitives":[
				{
					"attributes":{
						"POSITION":0,
						"NORMAL":1,
						"TEXCOORD_0":2
					},
					"indices":3,
					"material":0
				}
			]
		},
		{
			"name":"Object_5",
			"primitives":[
				{
					"attributes":{
						"POSITION":4,
						"NORMAL":5,
						"TEXCOORD_0":6
					},
					"indices":7,
					"material":1
				}
			]
		},
		{
			"name":"Object_6",
			"primitives":[
				{
					"attributes":{
						"POSITION":8,
						"NORMAL":9,
						"TEXCOORD_0":10
					},
					"indices":11,
					"material":2
				}
			]
		},
		{
			"name":"Object_7",
			"primitives":[
				{
					"attributes":{
						"POSITION":12,
						"NORMAL":13,
						"TEXCOORD_0":14
					},
					"indices":15,
					"material":1
				}
			]
		},
		{
			"name":"Object_0.001",
			"primitives":[
				{
					"attributes":{
						"POSITION":16,
						"NORMAL":17,
						"TEXCOORD_0":18
					},
					"indices":19,
					"material":3
				}
			]
		},
		{
			"name":"Object_1",
			"primitives":[
				{
					"attributes":{
						"POSITION":20,
						"NORMAL":21,
						"TEXCOORD_0":22
					},
					"indices":23,
					"material":0
				}
			]
		},
		{
			"name":"Object_4",
			"primitives":[
				{
					"attributes":{
						"POSITION":24,
						"NORMAL":25,
						"TEXCOORD_0":26
					},
					"indices":27,
					"material":4
				}
			]
		},
		{
			"name":"Object_3",
			"primitives":[
				{
					"attributes":{
						"POSITION":28,
						"NORMAL":29,
						"TEXCOORD_0":30
					},
					"indices":27,
					"material":2
				}
			]
		}
	],
	"accessors":[
		{
			"bufferView":0,
			"componentType":5126,
			"count":1458,
			"max":[
				1.2198907136917114,
				-0.20979227125644684,
				3.3018128871917725
			],
			"min":[
				-2.1974267959594727,
				-1.9823530912399292,
				-3.41908597946167
			],
			"type":"VEC3"
		},
		{
			"bufferView":1,
			"componentType":5126,
			"count":1458,
			"type":"VEC3"
		},
		{
			"bufferView":2,
			"componentType":5126,
			"count":1458,
			"type":"VEC2"
		},
		{
			"bufferView":3,
			"componentType":5123,
			"count":7680,
			"type":"SCALAR"
		},
		{
			"bufferView":4,
			"componentType":5126,
			"count":189,
			"max":[
				11.434603691101074,
				12.65400505065918,
				0.6653786301612854
			],
			"min":[
				8.186166763305664,
				10.906269073486328,
				-1.0823569297790527
			],
			"type":"VEC3"
		},
		{
			"bufferView":5,
			"componentType":5126,
			"count":189,
			"type":"VEC3"
		},
		{
			"bufferView":6,
			"componentType":5126,
			"count":189,
			"type":"VEC2"
		},
		{
			"bufferView":7,
			"componentType":5123,
			"count":960,
			"type":"SCALAR"
		},
		{
			"bufferView":8,
			"componentType":5126,
			"count":286,
			"max":[
				12.216058731079102,
				16.993045806884766,
				1.447652816772461
			],
			"min":[
				10.578131675720215,
				15.196152687072754,
				-1.789649248123169
			],
			"type":"VEC3"
		},
		{
			"bufferView":9,
			"componentType":5126,
			"count":286,
			"type":"VEC3"
		},
		{
			"bufferView":10,
			"componentType":5126,
			"count":286,
			"type":"VEC2"
		},
		{
			"bufferView":11,
			"componentType":5123,
			"count":1344,
			"type":"SCALAR"
		},
		{
			"bufferView":12,
			"componentType":5126,
			"count":1588,
			"max":[
				2.260573148727417,
				4.494048595428467,
				6.51054573059082
			],
			"min":[
				-2.767313003540039,
				2.535557985305786,
				-5.944755554199219
			],
			"type":"VEC3"
		},
		{
			"bufferView":13,
			"componentType":5126,
			"count":1588,
			"type":"VEC3"
		},
		{
			"bufferView":14,
			"componentType":5126,
			"count":1588,
			"type":"VEC2"
		},
		{
			"bufferView":15,
			"componentType":5123,
			"count":8064,
			"type":"SCALAR"
		},
		{
			"bufferView":16,
			"componentType":5126,
			"count":4995,
			"max":[
				1.4279791116714478,
				0.8782616853713989,
				0.8814432621002197
			],
			"min":[
				-2.4360110759735107,
				-1.9440155029296875,
				-0.9441077709197998
			],
			"type":"VEC3"
		},
		{
			"bufferView":17,
			"componentType":5126,
			"count":4995,
			"type":"VEC3"
		},
		{
			"bufferView":18,
			"componentType":5126,
			"count":4995,
			"type":"VEC2"
		},
		{
			"bufferView":19,
			"componentType":5123,
			"count":15936,
			"type":"SCALAR"
		},
		{
			"bufferView":20,
			"componentType":5126,
			"count":716,
			"max":[
				1.3957397937774658,
				2.9134020805358887,
				0.8689739108085632
			],
			"min":[
				-0.29484933614730835,
				0.8163530230522156,
				-0.931638240814209
			],
			"type":"VEC3"
		},
		{
			"bufferView":21,
			"componentType":5126,
			"count":716,
			"type":"VEC3"
		},
		{
			"bufferView":22,
			"componentType":5126,
			"count":716,
			"type":"VEC2"
		},
		{
			"bufferView":23,
			"componentType":5123,
			"count":3648,
			"type":"SCALAR"
		},
		{
			"bufferView":24,
			"componentType":5126,
			"count":1118,
			"max":[
				3.2580461502075195,
				6.4744486808776855,
				5.92390775680542
			],
			"min":[
				0.16420423984527588,
				4.443066120147705,
				-8.001659393310547
			],
			"type":"VEC3"
		},
		{
			"bufferView":25,
			"componentType":5126,
			"count":1118,
			"type":"VEC3"
		},
		{
			"bufferView":26,
			"componentType":5126,
			"count":1118,
			"type":"VEC2"
		},
		{
			"bufferView":27,
			"componentType":5123,
			"count":5760,
			"type":"SCALAR"
		},
		{
			"bufferView":28,
			"componentType":5126,
			"count":1118,
			"max":[
				2.9552953243255615,
				5.895798683166504,
				5.056795120239258
			],
			"min":[
				0.0651315450668335,
				3.869866371154785,
				-6.862030029296875
			],
			"type":"VEC3"
		},
		{
			"bufferView":29,
			"componentType":5126,
			"count":1118,
			"type":"VEC3"
		},
		{
			"bufferView":30,
			"componentType":5126,
			"count":1118,
			"type":"VEC2"
		}
	],
	"bufferViews":[
		{
			"buffer":0,
			"byteLength":17496,
			"byteOffset":0,
			"target":34962
		},
		{
			"buffer":0,
			"byteLength":17496,
			"byteOffset":17496,
			"target":34962
		},
		{
			"buffer":0,
			"byteLength":11664,
			"byteOffset":34992,
			"target":34962
		},
		{
			"buffer":0,
			"byteLength":15360,
			"byteOffset":46656,
			"target":34963
		},
		{
			"buffer":0,
			"byteLength":2268,
			"byteOffset":62016,
			"target":34962
		},
		{
			"buffer":0,
			"byteLength":2268,
			"byteOffset":64284,
			"target":34962
		},
		{
			"buffer":0,
			"byteLength":1512,
			"byteOffset":66552,
			"target":34962
		},
		{
			"buffer":0,
			"byteLength":1920,
			"byteOffset":68064,
			"target":34963
		},
		{
			"buffer":0,
			"byteLength":3432,
			"byteOffset":69984,
			"target":34962
		},
		{
			"buffer":0,
			"byteLength":3432,
			"byteOffset":73416,
			"target":34962
		},
		{
			"buffer":0,
			"byteLength":2288,
			"byteOffset":76848,
			"target":34962
		},
		{
			"buffer":0,
			"byteLength":2688,
			"byteOffset":79136,
			"target":34963
		},
		{
			"buffer":0,
			"byteLength":19056,
			"byteOffset":81824,
			"target":34962
		},
		{
			"buffer":0,
			"byteLength":19056,
			"byteOffset":100880,
			"target":34962
		},
		{
			"buffer":0,
			"byteLength":12704,
			"byteOffset":119936,
			"target":34962
		},
		{
			"buffer":0,
			"byteLength":16128,
			"byteOffset":132640,
			"target":34963
		},
		{
			"buffer":0,
			"byteLength":59940,
			"byteOffset":148768,
			"target":34962
		},
		{
			"buffer":0,
			"byteLength":59940,
			"byteOffset":208708,
			"target":34962
		},
		{
			"buffer":0,
			"byteLength":39960,
			"byteOffset":268648,
			"target":34962
		},
		{
			"buffer":0,
			"byteLength":31872,
			"byteOffset":308608,
			"target":34963
		},
		{
			"buffer":0,
			"byteLength":8592,
			"byteOffset":340480,
			"target":34962
		},
		{
			"buffer":0,
			"byteLength":8592,
			"byteOffset":349072,
			"target":34962
		},
		{
			"buffer":0,
			"byteLength":5728,
			"byteOffset":357664,
			"target":34962
		},
		{
			"buffer":0,
			"byteLength":7296,
			"byteOffset":363392,
			"target":34963
		},
		{
			"buffer":0,
			"byteLength":13416,
			"byteOffset":370688,
			"target":34962
		},
		{
			"buffer":0,
			"byteLength":13416,
			"byteOffset":384104,
			"target":34962
		},
		{
			"buffer":0,
			"byteLength":8944,
			"byteOffset":397520,
			"target":34962
		},
		{
			"buffer":0,
			"byteLength":11520,
			"byteOffset":406464,
			"target":34963
		},
		{
			"buffer":0,
			"byteLength":13416,
			"byteOffset":417984,
			"target":34962
		},
		{
			"buffer":0,
			"byteLength":13416,
			"byteOffset":431400,
			"target":34962
		},
		{
			"buffer":0,
			"byteLength":8944,
			"byteOffset":444816,
			"target":34962
		}
	],
	"buffers":[
		{
			"byteLength":453760,
			"uri":"Pato.bin"
		}
	]
}
